<?xml version="1.0" standalone="no"?><svg xmlns="http://www.w3.org/2000/svg" viewBox="0 0 1440 320"><path fill="#2E86AB" fill-opacity="0.6" d="M0,128L40,144C80,160,160,192,240,186.7C320,181,400,139,480,106.7C560,75,640,53,720,80C800,107,880,181,960,208C1040,235,1120,213,1200,213.3C1280,213,1360,235,1400,245.3L1440,256L1440,320L1400,320C1360,320,1280,320,1200,320C1120,320,1040,320,960,320C880,320,800,320,720,320C640,320,560,320,480,320C400,320,320,320,240,320C160,320,80,320,40,320L0,320Z"></path></svg>